G04 #@! TF.FileFunction,Paste,Bot*
%FSLAX46Y46*%
G04 Gerber Fmt 4.6, Leading zero omitted, Abs format (unit mm)*
G04 Created by KiCad (PCBNEW 4.0.7) date 08/21/19 21:36:26*
%MOMM*%
%LPD*%
G01*
G04 APERTURE LIST*
%ADD10C,0.100000*%
%ADD11R,0.500000X0.900000*%
%ADD12R,0.800000X0.750000*%
%ADD13R,2.200000X1.800000*%
%ADD14R,1.300000X0.300000*%
G04 APERTURE END LIST*
D10*
D11*
X129250000Y-131500000D03*
X130750000Y-131500000D03*
X135550000Y-131600000D03*
X134050000Y-131600000D03*
X81750000Y-87000000D03*
X80250000Y-87000000D03*
D12*
X80250000Y-93000000D03*
X81750000Y-93000000D03*
D13*
X87600000Y-83350000D03*
X87600000Y-106650000D03*
D14*
X90850000Y-104750000D03*
X90850000Y-104250000D03*
X90850000Y-103750000D03*
X90850000Y-103250000D03*
X90850000Y-102750000D03*
X90850000Y-102250000D03*
X90850000Y-101750000D03*
X90850000Y-101250000D03*
X90850000Y-100750000D03*
X90850000Y-100250000D03*
X90850000Y-99750000D03*
X90850000Y-99250000D03*
X90850000Y-98750000D03*
X90850000Y-98250000D03*
X90850000Y-97750000D03*
X90850000Y-97250000D03*
X90850000Y-96750000D03*
X90850000Y-96250000D03*
X90850000Y-95750000D03*
X90850000Y-95250000D03*
X90850000Y-94750000D03*
X90850000Y-94250000D03*
X90850000Y-93750000D03*
X90850000Y-93250000D03*
X90850000Y-92750000D03*
X90850000Y-92250000D03*
X90850000Y-91750000D03*
X90850000Y-91250000D03*
X90850000Y-90750000D03*
X90850000Y-90250000D03*
X90850000Y-89750000D03*
X90850000Y-89250000D03*
X90850000Y-88750000D03*
X90850000Y-88250000D03*
X90850000Y-87750000D03*
X90850000Y-87250000D03*
X90850000Y-86750000D03*
X90850000Y-86250000D03*
X90850000Y-85750000D03*
X90850000Y-85250000D03*
M02*
