G04 #@! TF.FileFunction,Soldermask,Top*
%FSLAX46Y46*%
G04 Gerber Fmt 4.6, Leading zero omitted, Abs format (unit mm)*
G04 Created by KiCad (PCBNEW 4.0.7) date 08/21/19 21:36:26*
%MOMM*%
%LPD*%
G01*
G04 APERTURE LIST*
%ADD10C,0.100000*%
%ADD11R,1.400000X1.650000*%
%ADD12R,1.200000X1.150000*%
%ADD13R,1.150000X1.200000*%
%ADD14R,1.650000X1.400000*%
%ADD15R,2.000000X2.000000*%
%ADD16C,2.000000*%
%ADD17R,1.300000X1.200000*%
%ADD18R,1.600000X1.600000*%
%ADD19R,3.900000X2.000000*%
%ADD20R,0.900000X1.300000*%
%ADD21R,1.460000X1.050000*%
%ADD22R,2.200000X2.600000*%
%ADD23R,0.700000X1.700000*%
%ADD24R,2.250000X2.250000*%
%ADD25C,2.250000*%
%ADD26R,1.700000X1.100000*%
%ADD27R,2.900000X3.400000*%
%ADD28R,2.000000X3.900000*%
%ADD29R,4.200000X2.400000*%
%ADD30R,1.900000X2.400000*%
%ADD31R,3.400000X1.000000*%
%ADD32R,1.000000X3.400000*%
%ADD33C,1.500000*%
%ADD34R,0.704800X1.924000*%
%ADD35R,0.908000X1.924000*%
%ADD36R,2.900000X2.200000*%
%ADD37C,5.400000*%
%ADD38R,0.900000X2.700000*%
%ADD39R,2.400000X2.900000*%
%ADD40C,1.300000*%
G04 APERTURE END LIST*
D10*
D11*
X164600000Y-103500000D03*
X162600000Y-103500000D03*
D12*
X162750000Y-106100000D03*
X164250000Y-106100000D03*
D13*
X157700000Y-95250000D03*
X157700000Y-93750000D03*
D14*
X170000000Y-94300000D03*
X170000000Y-96300000D03*
D15*
X195000000Y-132000000D03*
D16*
X197500000Y-132000000D03*
D12*
X168950000Y-117200000D03*
X167450000Y-117200000D03*
X162850000Y-117300000D03*
X164350000Y-117300000D03*
X106550000Y-75700000D03*
X105050000Y-75700000D03*
X109550000Y-72000000D03*
X108050000Y-72000000D03*
X95750000Y-73000000D03*
X94250000Y-73000000D03*
X109750000Y-79000000D03*
X108250000Y-79000000D03*
X81350000Y-104600000D03*
X79850000Y-104600000D03*
X81150000Y-108900000D03*
X79650000Y-108900000D03*
D17*
X167800000Y-122350000D03*
X167800000Y-124250000D03*
X169800000Y-123300000D03*
X163200000Y-122350000D03*
X163200000Y-124250000D03*
X165200000Y-123300000D03*
D18*
X195900000Y-69000000D03*
X198100000Y-69000000D03*
X195900000Y-75000000D03*
X198100000Y-75000000D03*
X195900000Y-63000000D03*
X198100000Y-63000000D03*
D19*
X80000000Y-129940000D03*
X80000000Y-125060000D03*
D20*
X172750000Y-88000000D03*
X171250000Y-88000000D03*
X172750000Y-82900000D03*
X171250000Y-82900000D03*
X177250000Y-83000000D03*
X178750000Y-83000000D03*
X177250000Y-88000000D03*
X178750000Y-88000000D03*
X177250000Y-93000000D03*
X178750000Y-93000000D03*
X177250000Y-99000000D03*
X178750000Y-99000000D03*
X173250000Y-69000000D03*
X174750000Y-69000000D03*
X173250000Y-75000000D03*
X174750000Y-75000000D03*
X173250000Y-63000000D03*
X174750000Y-63000000D03*
X99050000Y-82800000D03*
X100550000Y-82800000D03*
X94250000Y-67000000D03*
X95750000Y-67000000D03*
D21*
X100900000Y-78050000D03*
X100900000Y-79000000D03*
X100900000Y-79950000D03*
X103100000Y-79950000D03*
X103100000Y-78050000D03*
X103100000Y-79000000D03*
X96400000Y-123650000D03*
X96400000Y-124600000D03*
X96400000Y-125550000D03*
X98600000Y-125550000D03*
X98600000Y-123650000D03*
X98600000Y-124600000D03*
D22*
X123350000Y-68600000D03*
X144650000Y-68600000D03*
D23*
X142750000Y-71850000D03*
X142250000Y-71850000D03*
X141750000Y-71850000D03*
X141250000Y-71850000D03*
X140750000Y-71850000D03*
X140250000Y-71850000D03*
X139750000Y-71850000D03*
X139250000Y-71850000D03*
X138750000Y-71850000D03*
X138250000Y-71850000D03*
X137750000Y-71850000D03*
X137250000Y-71850000D03*
X136750000Y-71850000D03*
X136250000Y-71850000D03*
X135750000Y-71850000D03*
X135250000Y-71850000D03*
X134750000Y-71850000D03*
X134250000Y-71850000D03*
X133750000Y-71850000D03*
X133250000Y-71850000D03*
X132750000Y-71850000D03*
X132250000Y-71850000D03*
X131750000Y-71850000D03*
X131250000Y-71850000D03*
X130750000Y-71850000D03*
X130250000Y-71850000D03*
X129750000Y-71850000D03*
X129250000Y-71850000D03*
X128750000Y-71850000D03*
X128250000Y-71850000D03*
X127750000Y-71850000D03*
X127250000Y-71850000D03*
X126750000Y-71850000D03*
X126250000Y-71850000D03*
X125750000Y-71850000D03*
X125250000Y-71850000D03*
D12*
X142450000Y-74400000D03*
X143950000Y-74400000D03*
D24*
X157100000Y-67700000D03*
D25*
X159600000Y-67700000D03*
X162100000Y-67700000D03*
X164600000Y-67700000D03*
D26*
X122400000Y-75050000D03*
X122400000Y-76950000D03*
X125800000Y-75050000D03*
X125800000Y-76950000D03*
D27*
X193500000Y-83650000D03*
X198600000Y-83650000D03*
X150100000Y-127650000D03*
X155200000Y-127650000D03*
X193500000Y-90650000D03*
X198600000Y-90650000D03*
X193500000Y-97650000D03*
X198600000Y-97650000D03*
X193500000Y-104650000D03*
X198600000Y-104650000D03*
X193500000Y-111650000D03*
X198600000Y-111650000D03*
D28*
X100560000Y-71000000D03*
X105440000Y-71000000D03*
D29*
X163800000Y-92650000D03*
D30*
X163800000Y-98950000D03*
X166100000Y-98950000D03*
X161500000Y-98950000D03*
D31*
X149762000Y-112476000D03*
X149762000Y-111460000D03*
X149762000Y-110444000D03*
X149762000Y-109428000D03*
X149762000Y-108412000D03*
X149762000Y-107396000D03*
X149762000Y-106380000D03*
X149762000Y-105364000D03*
X149762000Y-104348000D03*
X149762000Y-103332000D03*
X149762000Y-102316000D03*
X149762000Y-101300000D03*
X149762000Y-100284000D03*
X149762000Y-99268000D03*
X149762000Y-98252000D03*
X149762000Y-97236000D03*
X149762000Y-96220000D03*
X149762000Y-95204000D03*
X149762000Y-94188000D03*
X149762000Y-93172000D03*
X149762000Y-92156000D03*
X149762000Y-91140000D03*
X149762000Y-90124000D03*
X149762000Y-89108000D03*
X149762000Y-88092000D03*
X149762000Y-87076000D03*
X149762000Y-86060000D03*
X149762000Y-85044000D03*
X149762000Y-84028000D03*
X149762000Y-83012000D03*
D32*
X147476000Y-80726000D03*
X146460000Y-80726000D03*
X145444000Y-80726000D03*
X144428000Y-80726000D03*
X143412000Y-80726000D03*
X142396000Y-80726000D03*
X141380000Y-80726000D03*
X140364000Y-80726000D03*
X139348000Y-80726000D03*
X138332000Y-80726000D03*
X137316000Y-80726000D03*
X136300000Y-80726000D03*
X135284000Y-80726000D03*
X134268000Y-80726000D03*
X133252000Y-80726000D03*
X132236000Y-80726000D03*
X131220000Y-80726000D03*
X130204000Y-80726000D03*
X129188000Y-80726000D03*
X128172000Y-80726000D03*
X127156000Y-80726000D03*
X126140000Y-80726000D03*
X125124000Y-80726000D03*
X124108000Y-80726000D03*
X123092000Y-80726000D03*
X122076000Y-80726000D03*
X121060000Y-80726000D03*
X120044000Y-80726000D03*
X119028000Y-80726000D03*
X118012000Y-80726000D03*
D31*
X115726000Y-83012000D03*
X115726000Y-84028000D03*
X115726000Y-85044000D03*
X115726000Y-86060000D03*
X115726000Y-87076000D03*
X115726000Y-88092000D03*
X115726000Y-89108000D03*
X115726000Y-90124000D03*
X115726000Y-91140000D03*
X115726000Y-92156000D03*
X115726000Y-93172000D03*
X115726000Y-94188000D03*
X115726000Y-95204000D03*
X115726000Y-96220000D03*
X115726000Y-97236000D03*
X115726000Y-98252000D03*
X115726000Y-99268000D03*
X115726000Y-100284000D03*
X115726000Y-101300000D03*
X115726000Y-102316000D03*
X115726000Y-103332000D03*
X115726000Y-104348000D03*
X115726000Y-105364000D03*
X115726000Y-106380000D03*
X115726000Y-107396000D03*
X115726000Y-108412000D03*
X115726000Y-109428000D03*
X115726000Y-110444000D03*
X115726000Y-111460000D03*
X115726000Y-112476000D03*
D32*
X118012000Y-114762000D03*
X119028000Y-114762000D03*
X120044000Y-114762000D03*
X121060000Y-114762000D03*
X122076000Y-114762000D03*
X123092000Y-114762000D03*
X124108000Y-114762000D03*
X125124000Y-114762000D03*
X126140000Y-114762000D03*
X127156000Y-114762000D03*
X128172000Y-114762000D03*
X129188000Y-114762000D03*
X130204000Y-114762000D03*
X131220000Y-114762000D03*
X132236000Y-114762000D03*
X133252000Y-114762000D03*
X134268000Y-114762000D03*
X135284000Y-114762000D03*
X136300000Y-114762000D03*
X137316000Y-114762000D03*
X138332000Y-114762000D03*
X139348000Y-114762000D03*
X140364000Y-114762000D03*
X141380000Y-114762000D03*
X142396000Y-114762000D03*
X143412000Y-114762000D03*
X144428000Y-114762000D03*
X145444000Y-114762000D03*
X146460000Y-114762000D03*
X147476000Y-114762000D03*
D33*
X136262000Y-129200000D03*
D34*
X125016000Y-126746000D03*
X126286000Y-126746000D03*
X127556000Y-126746000D03*
X128826000Y-126746000D03*
X130096000Y-126746000D03*
X131366000Y-126746000D03*
X132636000Y-126746000D03*
X133906000Y-126746000D03*
X135176000Y-126746000D03*
X136446000Y-126746000D03*
D35*
X123746000Y-134366000D03*
X137716000Y-134366000D03*
D33*
X125200000Y-129200000D03*
D13*
X87900000Y-127050000D03*
X87900000Y-128550000D03*
X92500000Y-126950000D03*
X92500000Y-128450000D03*
D12*
X107850000Y-113400000D03*
X106350000Y-113400000D03*
D36*
X104300000Y-117000000D03*
X100300000Y-117000000D03*
D24*
X148000000Y-134000000D03*
D25*
X150500000Y-134000000D03*
D20*
X97450000Y-131000000D03*
X98950000Y-131000000D03*
X105750000Y-131000000D03*
X104250000Y-131000000D03*
D36*
X93000000Y-79000000D03*
X97000000Y-79000000D03*
D37*
X88000000Y-74000000D03*
X180000000Y-74000000D03*
X88000000Y-121000000D03*
X180000000Y-121000000D03*
D38*
X164400000Y-131200000D03*
X165200000Y-131200000D03*
X166000000Y-131200000D03*
X166800000Y-131200000D03*
X167600000Y-131200000D03*
D39*
X161550000Y-131300000D03*
X161550000Y-136800000D03*
X170450000Y-131300000D03*
X170450000Y-136800000D03*
D40*
X163800000Y-133800000D03*
X168200000Y-133800000D03*
M02*
