M48
;DRILL file {KiCad 4.0.7} date 08/21/19 21:36:30
;FORMAT={-:-/ absolute / metric / decimal}
FMAT,2
METRIC,TZ
T1C0.400
T2C0.800
T3C0.900
T4C3.200
%
G90
G05
M71
T1
X81.9Y-100.9
X83.6Y-106.6
X85.Y-127.1
X86.4Y-92.6
X87.5Y-88.1
X88.1Y-100.3
X88.2Y-86.3
X88.8Y-89.2
X90.2Y-128.45
X93.3Y-89.4
X94.7Y-87.1
X95.Y-88.3
X95.2Y-90.2
X98.7Y-102.3
X98.9Y-120.5
X99.Y-75.8
X99.1Y-79.8
X102.5Y-128.1
X103.4Y-100.6
X104.4Y-112.4
X104.9Y-101.4
X105.2Y-83.
X105.6Y-84.1
X105.8Y-85.2
X105.9Y-65.9
X106.Y-91.3
X106.2Y-90.1
X106.3Y-87.9
X106.3Y-89.1
X106.3Y-92.4
X106.6Y-78.2
X106.6Y-86.
X106.6Y-86.9
X107.3Y-93.2
X107.8Y-100.3
X108.5Y-94.1
X109.Y-99.2
X111.4Y-95.4
X112.7Y-81.7
X112.8Y-107.5
X113.2Y-75.5
X115.2Y-79.2
X119.1Y-84.6
X120.2Y-78.1
X121.8Y-85.7
X122.1Y-78.2
X123.9Y-78.1
X124.9Y-83.6
X128.8Y-129.3
X131.2Y-129.4
X132.6Y-124.5
X132.7Y-119.1
X133.2Y-83.1
X133.9Y-118.3
X133.9Y-124.9
X134.9Y-117.2
X135.Y-124.2
X135.4Y-129.8
X141.2Y-123.9
X141.9Y-119.6
X142.1Y-120.7
X142.7Y-134.1
X143.3Y-86.8
X145.Y-76.2
X145.2Y-74.5
X146.5Y-120.7
X147.3Y-110.4
X147.5Y-76.3
X147.7Y-119.3
X150.1Y-123.9
X150.6Y-73.9
X154.3Y-103.4
X154.3Y-106.3
X155.3Y-122.9
X156.1Y-135.8
X159.3Y-96.8
X159.4Y-103.6
X161.1Y-105.5
X161.5Y-110.3
X162.8Y-114.9
X163.2Y-127.5
X164.6Y-76.3
X166.5Y-120.8
X167.4Y-115.2
X170.4Y-127.5
X170.6Y-67.6
X170.6Y-73.2
X171.1Y-118.7
X174.4Y-80.7
X174.9Y-86.7
X175.4Y-115.1
X180.7Y-66.8
X185.2Y-80.9
T2
X195.Y-132.
X197.5Y-132.
T3
X148.Y-134.
X150.5Y-134.
X157.1Y-67.7
X159.6Y-67.7
X162.1Y-67.7
X164.6Y-67.7
T4
X88.Y-74.
X88.Y-121.
X180.Y-74.
X180.Y-121.
T0
M30
